
<svg xmlns="http://www.w3.org/2000/svg" version="1.1" xmlns:xlink="http://www.w3.org/1999/xlink" preserveAspectRatio="none" x="0px" y="0px" width="1000px" height="1000px" viewBox="0 0 1000 1000">
<defs/>

<g id="___1">
<g transform="matrix( 1.0938720703125, 0, 0, 1.0938720703125, -29.1,-78.45) ">
<g>
<g>
<path fill="#09559D" stroke="none" d="
M 595.25 663.7
L 565.7 702.05 618.8 854.3
Q 622.65 879.25 610 877.15 600.15 875.75 597 873.65 593.45 871.55 570.6 853.95
L 484.05 787.15 602.95 894.4 625.85 910.6
Q 649.75 923.95 654 909.5 654.35 908.8 654.35 908.1 659.25 891.95 658.9 879.25 658.55 866.6 652.2 842.7 647.3 823.35 620.55 741.8
L 595.25 663.7
M 467.9 578.2
L 466.85 579.25 420.75 614.1 419 615.15 420.75 616.55 419.7 631.7 419.7 632.4 420.4 633.1 486.55 679.15 486.55 679.85 487.6 679.85 487.95 680.2 489 680.95 536.15 644 536.85 643.65 536.85 642.6 535.45 629.55 536.15 629.2 467.9 578.2
M 422.85 631
L 423.55 618.65
Q 479.5 661.6 486.55 665.8
L 486.55 675.3 422.85 631
M 532.6 632.05
L 533.65 642.25 489.7 676.35 489.7 665.1
Q 490.4 664.75 532.6 632.05
M 530.85 629.2
Q 489 663.35 487.6 663.35
L 424.3 615.15 467.9 582.45 530.85 629.2
M 477.05 594.75
Q 471.75 594.75 467.55 602.5 465.8 605.65 464.75 609.5 460.15 609.85 456.3 611.3 449.6 614.1 449.25 618.65 448.9 623.95 456.3 627.8 459.1 629.2 462.6 629.9 462.95 638.35 466.5 642.95 468.6 645.4 471.75 646.1
L 472.45 646.1
Q 478.1 646.1 482.3 638.35 484.05 635.2 485.15 631.35 489 630.6 492.15 629.55 498.85 626.75 499.2 622.2 499.9 616.9 491.45 613.05 489.7 612 487.6 611.65 487.25 607.4 486.2 604.6 483.7 595.45 477.05 594.75
M 477.4 601.45
Q 478.45 601.45 479.85 606 480.2 607.75 480.55 609.85 477.75 609.5 474.95 609.15
L 472.1 609.15
Q 472.8 607.4 473.5 606 475.65 601.45 477.05 601.45
L 477.4 601.45
M 470.7 614.1
L 474.6 614.1
Q 477.75 614.1 480.9 614.8 480.55 617.6 480.2 621.15 479.85 623.95 479.15 626.75 478.45 626.75 477.4 626.75
L 473.85 626.75
Q 471.4 626.4 468.95 626.4 468.95 623.25 469.65 619.7 470 616.9 470.7 614.1
M 458.4 615.85
Q 460.85 615.15 463.65 614.8 463.3 616.55 462.95 619 462.6 621.85 462.6 624.65 460.85 623.95 459.1 623.25 454.2 621.15 454.2 619 454.2 617.6 458.4 615.85
M 472.45 639.4
L 471.75 638.7
Q 469.65 635.9 469.3 631.35 471.4 631.7 473.5 631.7
L 477.75 631.7
Q 477.05 633.45 476.35 634.85 474.25 639.4 472.45 639.4
M 487.6 616.9
Q 488.3 617.25 489.35 617.6 494.3 619.7 494.3 621.85 493.9 623.6 489.7 625 488.3 625.7 486.55 626.05 486.55 623.95 486.9 621.85 487.25 619 487.6 616.9
M 470 621.15
Q 470 625.7 474.6 625.7 479.15 625.7 479.15 621.15 479.15 616.55 474.6 616.55 470 616.55 470 621.15
M 348.35 434.1
Q 345.8 435.7 345.8 438.95 345.7 442.45 349.55 444 349.6 444.1 349.65 444.1 352.3 445.2 355.15 444.7 356.3 444.55 357.45 444 357.5 444 357.55 443.95 360.7 442.5 361.2 439.85 361.25 439.3 361.25 438.7 361.15 436.5 359.85 435.05 358.95 434.15 357.4 433.5 357.1 433.4 356.9 433.3 355.1 432.65 353.3 432.65 351.35 432.65 349.4 433.5 348.8 433.75 348.35 434.1
M 350.3 436.6
Q 351.5 435.95 352.85 435.9 355.5 435.6 357.2 437.15 357.25 437.2 357.3 437.25 357.4 437.25 357.45 437.35 357.85 437.7 358.05 438.2 358.3 438.75 358.1 439.4 357.95 439.75 357.7 440.1 356.55 441.55 353.7 441.55 352.45 441.55 351.5 441.35 350.1 441.1 349.45 440.45 348.8 439.8 348.8 438.85 348.8 437.7 349.8 437 350.05 436.75 350.3 436.6
M 331.95 438.85
Q 331.7 439.1 331.45 439.35 331.2 439.6 331 439.95 330.85 440.05 330.8 440.25 329.85 442 330.5 444 330.55 444.25 330.65 444.6 332.15 448.15 337.15 447.25 341.1 446.55 341.95 444 342.15 443.35 342.15 442.5 342.15 441.1 340.85 439.45 339.55 437.9 338.3 437.85 337.5 437.85 336.7 437.65 335.45 437.55 334.35 437.7 332.95 438.05 331.95 438.85
M 382.45 432.35
Q 382.4 432.1 382.4 431.95 382.35 431.85 382.35 431.75
L 381.3 429.45
Q 380.25 428.05 378.45 427.05 376.15 425.65 373.85 425.65 371.4 425.65 368.7 427.2 367.8 427.75 367.15 428.35 365.95 429.45 365.3 430.85 364.1 433.25 364.85 435.7
L 364.9 436.05
Q 366.8 441.55 374.15 440.85 381.6 440.05 382.4 434.3 382.55 433.25 382.45 432.35
M 377.1 429.9
Q 377.65 430.25 378.1 430.7 379.8 432.3 379.15 434.2 379.05 434.5 378.9 434.75 378.2 436.1 376.75 436.8 375.2 437.65 372.95 437.65 369.65 437.65 368.65 435.9 367.7 434.6 368.25 432.45 368.65 431.05 370.2 430.15 372.3 428.85 374.35 429.1 375.9 429.1 377.1 429.9
M 407.15 427.55
Q 408 424.25 406.2 421.4 404.25 418.2 399.7 416.9 397.2 416.25 395.9 416.2 395.1 416.25 394.2 416.45 389.7 417.45 387.25 420.35 385 423 385.1 426.25 385.1 426.4 385.1 426.5 385.2 426.85 385.25 427.15 385.65 428.95 386.55 430.4 387.05 431.2 387.8 431.85 389.6 433.45 392.1 434.2
L 393.95 434.55
Q 394.45 434.6 395.1 434.7 399.9 435 403.2 432.85 406.3 430.85 407.15 427.55
M 393.05 420.6
Q 393.1 420.6 393.2 420.55
L 393.5 420.5
Q 395.15 419.9 395.75 419.85 396 419.85 396.6 419.95 398.95 419.9 400.85 421.2 403.45 422.5 403.8 424.9 404.2 426.5 403.2 428 402.5 429.3 401 430.1 399.55 430.8 397.5 431 397.1 431.05 396.7 431.05 395.3 431.1 393.75 430.8 389.4 430.15 389.35 428.45
L 389.35 428.4 388.8 426.65
Q 388.35 424.95 389.6 423.15 390.8 421.4 393.05 420.6
M 544.3 295.25
Q 544.3 294.8 529.15 294.75 514.05 294.7 513.6 295.15 512.35 296.35 514.55 303.5 516.7 310.6 519.55 315.05 522 318.8 526.8 322.75 531.6 326.7 534.8 327.6 536 328 536.6 329.5 537.1 330.95 537.55 335.05 538.1 339.35 538.8 343.75
L 539.45 347.35 543.2 347.55
Q 547.35 347.7 547.95 346.45 548.5 345.15 548.5 335.7
L 548.5 324.95 550.4 323.25
Q 552 321.85 551.65 321.05 551.2 320.35 548.25 319.65
L 543.6 318.4
Q 541.5 317.75 539.3 317.3 536.65 316.85 537.75 315.75 538.85 314.7 544 312.7 550.1 310.3 550.2 309.45 550.25 308.55 544.7 307.25 538.35 305.75 537.25 305.3 536.05 304.9 536.05 304.15 536.05 303.1 536.8 302.7 537.7 302.2 541 298.9 544.3 295.65 544.3 295.25
M 516.75 225.4
Q 516.95 226.1 519.4 231.7
L 520.95 235.45
Q 520.95 235.7 523.55 241.65
L 529.45 254.95
Q 530.1 256.45 530.9 256.75 531.75 257.15 533.15 256.65 533.85 256.35 533.95 255.15 534.05 253.9 533.5 252.85
L 521.9 226.15
Q 520.85 223.75 519.95 223.4 519.05 222.95 517.55 224.05 516.55 224.7 516.75 225.4
M 492 243.35
Q 492 244 493.7 245.55 495.65 247.45 508.85 259.05
L 516.75 266.1
Q 517.6 266.95 518.55 266.75 519.6 266.55 520.3 265.45 521.1 264.3 520.15 263.2 519.1 262.05 510.35 254.3
L 503.4 248.15
Q 499 244 496.85 242.35 496.3 241.9 495.8 241.65 494.4 240.8 493.45 241.35 493.1 241.45 492.85 241.8 492.05 242.55 492 243.3
L 492 243.35
M 551.1 234.6
Q 551.1 218.15 550.55 216.95 550.15 216.2 548.9 216 547.6 215.8 547.2 216.45 546.9 216.95 546.9 234.6 546.9 248.85 547.1 251.05 547.35 253.3 548.8 253.3 550.4 253.3 550.7 250.55 551.1 247.7 551.1 234.6
M 589.2 280.35
L 603.6 273.2
Q 614.7 267.65 616.65 266.35 618.6 265.05 617.95 263.35 617.35 261.9 614.9 262.7 612.35 263.65 601.3 269.2 590.2 274.85 588.5 276 586.85 277.3 588.1 278.95
L 589.2 280.35
M 570.25 294.8
Q 570.1 294.8 569.95 294.8 569.85 294.8 569.8 294.8 569.65 294.8 569.5 294.8 569.4 294.8 569.35 294.8 568.95 294.8 568.6 294.8
L 551.3 294.8 547.7 298.45
Q 544.65 301.55 544.75 302.4 544.9 303.25 548.65 304.05
L 558.1 306.4
Q 563.25 307.65 563.55 308.2 563.95 308.85 560.45 310.3
L 552.45 313.6
Q 549.6 314.9 549.9 315.3 550.15 315.7 554.7 317.1 559.95 318.7 560.2 319.5 560.45 320.35 556.75 323.45
L 552.6 326.95 552.95 347.35 560.65 347.35 561.05 345.6
Q 561.5 343.8 562.2 337.95 563.05 331.55 563.6 329.8 564.25 328.05 565.95 327.2 572.2 324.3 577.1 318.85
L 578.1 317.75
Q 578.55 317.1 579 316.5 584.15 309.5 585.8 300.1 585.9 299.55 586 299.1 586.35 297 586.35 296.8 586.35 296.5 586.3 296.25 586.05 295.5 585.1 295.25 584.15 295 578.55 294.85
L 570.25 294.8
M 576.5 224.7
Q 571.7 235.2 567.65 245.2 563.55 255.35 563.9 255.85 564.4 256.65 565.7 256.8 567 256.95 567.5 256.3 580 228.05 580.8 225.7
L 580.85 225.65
Q 581.3 224.05 579.3 223.5 579.1 223.45 578.9 223.45 577.3 222.85 576.5 224.7
M 603.55 245.95
Q 606 243.35 605.25 242.2 604.5 241.05 603.3 240.9 602.1 240.75 601.35 241.65 600.95 242.25 590.05 251.9
L 578.15 262.45
Q 577.05 263.5 577.15 264.65 577.3 265.85 578.55 266.6 579.25 267.05 582.85 264.4 586.55 261.75 588.4 259.5
L 591.3 256.9
Q 601.15 248.45 603.55 245.95
M 484.4 305.45
Q 483.7 306.95 483.5 312.8 483.4 318.9 483.4 347.35
L 483.4 387.35 484.6 389.55
Q 487.7 395.35 493.3 398
L 496.55 399.5 548.65 399.5
Q 592.25 399.5 598.05 399.15 602.6 398.9 604.45 398.1 605.15 397.85 607.55 396.05 610.85 393.5 611.85 392.2 613.4 390.1 614 385.85 614.9 379.95 614.75 346.1
L 614.65 308.05 613.45 305.55
Q 608.35 295.05 596.75 295.05
L 591.8 295 590.45 303.95
Q 589.95 306.15 589.2 308.2
L 587.45 312.55
Q 586.5 314.5 585.4 316.4
L 585 317.05
Q 584.35 318.05 583.65 319.1 578.4 326.55 570.95 330.25 568.35 331.55 567.85 333.3 567.3 335 565.55 347.85 565.1 351.45 564.8 351.85 564.4 352.5 550.25 352.35 536.15 352.3 535.6 351.65 534.95 350.85 534.25 344.25 533.35 336.55 532.65 332.7 532.3 331.5 530.5 330.7 521.95 327.15 515 317.05 508 306.85 508 297.9
L 508 296.9
Q 507.8 295.5 507.3 295.2 507.05 295.05 506.6 295 505.35 294.75 502.45 294.8 498.6 294.85 496.45 295.3
L 495.05 295.7
Q 491.6 297 488.75 299.55 485.95 302.15 484.4 305.45
M 564.8 366.6
L 565 368.2
Q 565.1 369.85 563.15 370.2 561.2 370.45 549.7 370.45 539.1 370.5 537.2 370.1 535.25 369.65 535.75 367.6
L 536.05 366.3 564.8 366.6
M 565 359.9
Q 565.1 361.5 563.25 361.85 561.2 362.1 549.95 362.15
L 543.8 362.15
Q 539.5 362.1 538 361.9 536.9 361.75 536.35 361.35 535.55 360.9 535.55 360.2 535.55 358.8 537.35 358.4 537.5 358.35 537.7 358.35 538.55 358.25 540.6 358.2
L 564.8 358.25 565 359.9
M 537.75 374.9
Q 538.6 374.85 540.6 374.8
L 564.8 374.85 565 376.45
Q 565.1 378.15 563.15 378.5 561.2 378.75 549.75 378.75 547.85 378.75 546.25 378.75
L 541.45 378.7
Q 538.6 378.6 537.65 378.5 537.35 378.4 537.25 378.4 535.7 378.05 535.55 376.95
L 535.55 376.55
Q 535.7 375.3 537.45 375 537.55 374.9 537.75 374.9
M 545.65 386.6
Q 545.1 386.4 544.8 386.05 544.3 385.55 544.3 384.75 544.3 384.65 544.35 384.5 544.8 383 549.9 382.85 550.4 382.85 550.85 382.85 555.4 382.75 555.65 384.4 555.85 385.7 555.25 386.25 555.05 386.4 554.85 386.5 554.75 386.6 554.55 386.65
L 554.5 386.7
Q 553.3 387.05 550.6 387.1 550.55 387.1 550.45 387.1
L 548.85 387.1
Q 546.65 386.95 545.65 386.6
M 385.7 294.7
Q 335.3 294.8 332.05 295.9 329.2 296.95 326.25 299.75 323.3 302.45 321.8 305.45
L 320.55 308.05 320.55 319.55
Q 273.8 275.4 255.45 277.45 236.45 279.55 246.65 322.5 247 325.65 248.05 329.15 254.35 353.8 264.95 378.05
L 297.65 481.15 333.5 461.05
Q 303.25 376.65 301.5 355.9 300.45 342.55 311.7 343.95 315.05 344.55 320.55 346.95
L 320.55 386.25 321.8 388.85
Q 324.5 394.55 329.4 397.1 334.25 399.55 342.15 399.4
L 348.45 399.2
Q 348.45 399.75 349.4 400.9 351.8 403.7 354.6 405.4 355.75 406.15 359.4 406.4
L 362.95 406.7 366.2 410.05
Q 370.85 414.85 377.55 416.25 384.15 417.75 389.25 415.1
L 392.4 413.5
Q 394.15 412.7 397 410.9 398.9 409.55 400.15 409.45 410.6 418.4 420.75 427.3
L 474.25 473.75 453.8 453
Q 431.6 430.35 416.6 415.5 417.35 415.6 418.1 415.75 431.2 418.1 438.25 416.4 451.45 413.4 458.55 402.45 465.7 391.6 460.65 382.25
L 459.15 379.45 461 376.85
Q 466.15 369.85 464.9 363.3 463.7 356.75 456.05 350.4 454.2 348.8 453.35 348.75 452.6 348.75 452.55 350.15 452.55 352.45 451.7 352.45 450.85 352.45 447.6 350.15 435.05 341.6 424.7 341.45 414.4 341.35 406.95 349.65 404.5 352.35 403.65 352.5 402.8 352.6 402.75 350.2 402.7 344.25 398.55 343.15 394.4 342.05 388.7 346.45 386.1 348.4 385.25 348.3 384.35 348.15 383.55 345.7
L 383.3 344.95
Q 382.25 342.4 380.6 340.35 379.15 338.6 377.35 337.65 373.4 335.65 367.75 337 365.1 337.65 363 338.6 358.1 341.1 356.4 344.95 355.75 346.45 356 348.85 356.1 349.45 356.55 351.45 357 353.4 357.35 354.05 357.65 354.7 356.55 357.2
L 346.95 364.45
Q 344.75 366.85 344.75 368.9 344.75 370.75 349.2 373.95 353.7 377.1 357.85 378.15 359.5 378.6 359.5 379.65 359.5 380.7 357.85 383.55 355.25 387.75 354.2 391.45 353.15 395.2 353.8 397.55 354.4 399.85 350.7 398.95 349.1 398.55 348.65 398.9
L 348.45 396.2
Q 348.15 390.6 350.75 385.1
L 352.15 382.25 350.9 381.25
Q 349.65 380.35 348.65 379.95 345.5 379 342.45 375.35 339.4 371.8 339.4 369.15 339.4 366.25 342.3 362.45 342.7 361.9 343.2 361.4 350.75 356.65 351.4 353.4 352.05 350.15 351.3 348.35 350.5 346.45 350.9 344.4 351.55 341.4 354.85 338.1 361.65 331.3 370.8 331.15 379.95 331.1 385 337.8 386.7 340 387.5 340.2 388.45 340.45 390.8 339.25 394.5 337.45 398.35 338.05 402.15 338.55 404.25 341.15 405.2 342.45 406.1 342.4 407.1 342.4 409.1 340.95 416.55 335.95 426.85 336.85 437.15 337.85 448.1 344.5 451.45 346.55 451.75 346.25 452.35 345.7 452.05 327.35 451.9 308.95 451.25 307.4 449.4 302.65 446.55 299.85 443.8 297.15 439.35 295.65 436.05 294.55 385.7 294.7
M 452.4 353.7
Q 452.8 353.25 454.85 355.15 456.95 357.05 458.25 358.9 462.4 365.25 459.25 371.6 458.25 373.6 455.7 376.3 453.2 378.95 452.65 378.55 452.2 378.3 452.05 366.25 451.95 354.25 452.4 353.7
M 452.8 380.1
Q 452.85 380.05 453.35 380.35 454.1 380.75 456.1 382.9 456.85 383.65 457.45 385.2 457.5 385.35 457.6 385.5 458.9 388.15 458.45 390.2
L 458.45 390.3 457.9 392.7
Q 457.05 396.1 456.05 398.2 455.4 399.55 454.35 400.95 449.35 409.1 439.45 411.8 434.1 413.3 428.1 412.95 416.15 414.35 407.3 408.85
L 399.55 404 396 405.95
Q 386.8 412.5 380.2 412.6 373.05 412.7 368.05 405.25 366.4 402.7 365.4 402.15 364.5 401.55 363.1 402.15 361.15 402.85 357.7 401.9 354.2 400.9 355.65 400 356.3 399.6 388.5 399.55
L 400.3 399.55
Q 426.05 399.5 431.25 399.35 437.6 399.2 439.5 398.6 445 396.65 448.1 392.5 451.3 388.4 452.35 381.7 452.35 381.6 452.4 381.45
L 452.4 381.4
Q 452.6 380.25 452.8 380.1
M 479.95 263.35
Q 479.25 265 481.1 266.3 483 267.6 493.6 272.85 505.95 279 507.55 279.55 509.1 280.15 509.75 278.8 510.6 277.1 508.85 275.8 507.1 274.6 496.1 269.05 484.8 263.45 482.75 262.7 480.65 261.95 479.95 263.35
M 763.6 295.8
Q 760.55 294.95 743.05 294.75 725.6 294.5 725.1 295.25 724.9 295.7 727.75 298.25 730.45 300.5 734.5 304.55 738.5 308.5 739.65 310.1 744.6 316.65 746.75 321.05 748.85 325.55 749.9 331.35 751.8 342.3 745.3 354.5 738.8 366.7 726.1 376.1
L 721.9 379.2
Q 717.75 382.5 702.95 390.45 688.25 398.45 686.4 398.45 686.1 398.45 686 398.6 685.95 398.65 686.05 398.75 686.6 399.35 725 399.1 728.2 399.05 731.15 399.05
L 608.25 466 517.85 496.95
Q 444.35 513.15 389.45 500.8 372.55 496.95 359.55 490.6
L 349.7 485 45.8 648.9 46.85 651.4 54.55 648.9
Q 84.85 633.8 129.5 623.95 150.6 619.35 166.1 617.25 167.15 616.9 168.2 616.9 275.85 607.75 339.85 648.55 371.85 668.95 382.4 691.15
L 432 651.75 412.3 637.65 411.6 611.65 467.2 569.75 504.85 594.4 768.7 396.5
Q 769.7 395.85 770.65 395.05
L 843.9 340.05 532.6 616.2 544.25 624.3 547.05 646.1 490.4 695 464.4 676.35 404.95 730.15
Q 409.85 780.45 395.1 830 387.35 854.65 378.9 869.4
L 854.1 332 776.8 374.15
Q 776.85 365.4 776.85 347.2
L 776.85 309.05
Q 776.85 308.7 776.8 308.35
L 775.25 305.25
Q 771.35 297.7 763.6 295.8
M 679.5 171.65
L 676.85 174.5
Q 676.1 175.35 675.35 176.3 670.25 183.2 668.3 191.5
L 668.05 192.55
Q 666.95 198.25 667.45 205.95 667.85 211.7 668.95 216.75 669.55 219.7 670.45 222.4 670.45 222.45 670.5 222.55 671.15 224.7 672 226.75
L 685.35 246.65
Q 685.45 246.8 685.55 246.85 685.65 246.95 685.75 247.05 689.05 250.4 689.9 251.75 690.7 253.15 689.3 252.85 680.95 251.45 676.15 253.85 671.4 256.3 671.85 261.8 672.2 265.25 679.75 266.5 687.35 267.7 693.6 265.25 697.45 263.75 697.6 265.2 697.8 266.6 694.4 273.1 693.7 274.4 694.5 274.7 695.25 275.05 699.15 275.05 702.35 275.05 703.25 275.8 704.15 276.6 704.8 279.75 705.3 282.1 707.3 285.8 709.4 289.55 711.2 291.45 713.55 293.75 713.1 294.3 712.5 294.75 686.1 294.85
L 659.7 295 656.25 296.75
Q 649.35 300.05 647.05 307 645.75 310.8 645.95 348.35 646.05 385.85 647.35 388.65 649.25 392.6 653.2 395.6 657.15 398.65 661.35 399.3 662.9 399.55 667.65 398.25 672.4 396.9 676.4 395.1 678.2 394.3 678.6 394.3 679.2 394.3 680.1 393.85 680.5 393.5 686 391.25 704 383.75 717.75 373.95 731.5 364.1 738 354 746.65 340.55 742.1 326.75 737.6 312.95 719.95 299.35 715.95 296.25 715.5 295.4 715.05 294.55 717.35 294.35 719.5 294.2 719.35 293.75 719.2 293.3 716.05 290.2 713.3 287.55 711.7 285.15 710.15 282.75 708.95 279.4 707.85 276.15 708.8 275.55 709.85 275.05 717.25 275.05 725.85 275.05 726.05 274.6 726.3 274.15 724.3 269.7 722.25 265.3 721.65 264.95 721.2 264.65 721.2 263.65 721.2 262.65 721.7 262.35 722.3 262.05 725.2 263.2 735.3 267 740.85 265.85 746.25 264.6 746.25 258.5 746.25 254.55 743.95 252.6 741.6 250.75 736.75 250.75 733.05 250.75 732.9 249.9 732.8 249.05 736.05 245.75 751.7 229.6 753.85 206.7 755.95 183.85 742.75 172.55
L 739.75 170.05
Q 735.65 166.55 726.35 162.95 725.2 162.6 720.2 161.5 719.25 161.3 718.25 161.1 716.05 160.85 713.6 160.7 707.1 160.3 702.15 161.1 698.35 161.7 694.7 162.9 690.2 164.4 686.5 166.45
L 679.7 171.45
Q 679.6 171.6 679.5 171.65
M 673.4 187.85
Q 677.7 176.7 687.55 170.25 690.15 168.4 691.65 168.05 693.2 167.45 693.4 167.25 695.05 166.1 699.15 165.3 701.1 164.8 702.7 164.6 705.3 164.2 709.7 164.35 717.1 164 720.95 165.3
L 721.2 165.35
Q 723.4 166.15 724.15 166.15 724.7 166.15 727.3 167.25 742.5 173.85 747.95 186.5 753.35 199.2 748.35 216.45 745.75 225.15 744.9 225.6 744.45 226.05 744.45 226.6 744.45 231.2 735 240.95 725.55 250.65 717.15 254.6 713.2 256.55 712.45 257.2 711.65 257.95 713.1 258.25 714.2 258.55 716.9 263.5 719.65 268.45 719.65 270.2
L 719.65 271.45 710.05 271.45
Q 702 271.45 700.7 270.95 699.45 270.5 700.7 267.85 701.85 265.55 702.25 264.4
L 704 260.45
Q 705.05 258.2 704.6 257.4 704.15 256.7 700.1 254.1 688.05 246.25 680.4 234.4 673.15 223.2 671.3 210.8 669.45 198.35 673.4 187.85
M 740.25 254.9
Q 740.75 255.05 741.15 255.35 742.1 255.8 742.45 256.45 743.1 257.65 742.85 258.95 742.6 261.9 739.9 262.2
L 739.65 262.2
Q 735 262.45 728.45 260.45 721.9 258.45 723.25 257.2
L 723.35 257.2
Q 724.6 256.05 728.4 255.35 730.05 254.9 731.3 254.7 733.9 254.35 736.05 254.45 738.7 254.3 740.25 254.9
M 683 263.25
Q 676.7 263.2 675.6 260.25 674.45 257.35 680.35 256.35
L 682.55 255.9 686.75 256.45
Q 690.15 256.75 692.3 257.45 692.55 257.55 692.75 257.6
L 695.45 258.7
Q 698.1 259.6 693.1 261.5 688.15 263.3 683 263.25 Z"/>
</g>
</g>
</g>
</g>

<g id="___2"/>
</svg>
